<?xml version="1.0" encoding="UTF-8" standalone="no"?>
<!-- Created with Inkscape (http://www.inkscape.org/) -->

<svg
   xmlns:dc="http://purl.org/dc/elements/1.1/"
   xmlns:cc="http://creativecommons.org/ns#"
   xmlns:rdf="http://www.w3.org/1999/02/22-rdf-syntax-ns#"
   xmlns:svg="http://www.w3.org/2000/svg"
   xmlns="http://www.w3.org/2000/svg"
   xmlns:sodipodi="http://sodipodi.sourceforge.net/DTD/sodipodi-0.dtd"
   xmlns:inkscape="http://www.inkscape.org/namespaces/inkscape"
   width="297mm"
   height="297mm"
   viewBox="0 0 1052.3622 1052.3622"
   id="svg4277"
   version="1.1"
   inkscape:version="0.91 r13725"
   enable-background="new"
   sodipodi:docname="drawing.svg">
  <defs
     id="defs4279" />
  <sodipodi:namedview
     id="base"
     pagecolor="#ffffff"
     bordercolor="#666666"
     borderopacity="1"
     inkscape:pageopacity="0.0"
     inkscape:pageshadow="2"
     inkscape:zoom="0.35"
     inkscape:cx="243.57143"
     inkscape:cy="291.42857"
     inkscape:document-units="px"
     inkscape:current-layer="layer1"
     showgrid="false"
     height="297mm"
     inkscape:window-width="1680"
     inkscape:window-height="1001"
     inkscape:window-x="0"
     inkscape:window-y="1"
     inkscape:window-maximized="1" />
  <metadata
     id="metadata4282">
    <rdf:RDF>
      <cc:Work
         rdf:about="">
        <dc:format>image/svg+xml</dc:format>
        <dc:type
           rdf:resource="http://purl.org/dc/dcmitype/StillImage" />
        <dc:title />
      </cc:Work>
    </rdf:RDF>
  </metadata>
  <g
     inkscape:label="Background"
     inkscape:groupmode="layer"
     id="layer1"
     transform="translate(0,-3.464567e-6)"
     style="display:inline">
    <path
       style="fill:#000000"
       clip-path="none"
       d="M 526.18164 2 A 526.18109 526.18109 0 0 0 0 528.18164 A 526.18109 526.18109 0 0 0 526.18164 1054.3613 A 526.18109 526.18109 0 0 0 1052.3613 528.18164 A 526.18109 526.18109 0 0 0 526.18164 2 z M 223.39648 221.44141 C 229.8682 221.37116 235.27412 223.9843 239.22461 229.73047 C 246.88617 240.96743 242.79952 249.1398 212.66406 281.31836 C 170.27008 326.77695 143.7099 370.19359 127.36523 418.7168 C 115.10673 456.00308 113.57422 467.75019 113.57422 534.15039 C 113.06345 597.99673 114.59709 613.31943 124.8125 646.51953 C 142.68948 703.72585 168.73902 748.67432 208.06836 792.08984 C 242.80077 830.39764 248.92936 843.16632 237.18164 854.91406 C 219.30466 872.79103 180.48673 846.23182 138.60352 786.98242 C 108.97881 745.09922 92.63272 711.38774 76.798828 658.26758 C 64.540326 618.93822 63.008824 604.12681 62.498047 536.70508 C 61.987282 469.7941 63.518957 454.98135 73.734375 421.78125 C 104.46043 322.57999 183.84709 221.87071 223.39648 221.44141 z M 825.55469 222.68945 C 835.98987 222.69633 848.98931 229.95509 864.4082 244.0332 C 977.79932 348.74121 1021.2142 550.49568 961.96484 697.59766 C 936.4263 759.9117 883.81652 832.44116 847.04102 854.4043 C 824.5671 868.19511 823.5455 868.19393 813.33008 857.97852 C 800.05005 845.20924 803.62613 837.03711 835.80469 802.30469 C 878.19866 756.84609 904.75886 713.43143 921.10352 664.9082 C 933.36202 627.62195 934.89453 615.87481 934.89453 549.47461 C 935.40529 485.62827 933.87362 470.30361 923.6582 437.10352 C 905.78122 379.89719 879.73169 334.95068 840.40234 291.53516 C 805.66993 253.22736 799.53938 240.45672 811.28711 228.70898 C 815.32539 224.67071 820.08864 222.68585 825.55469 222.68945 z M 447.61914 256.54688 C 461.40995 256.67457 484.13895 262.93095 505.33594 275.18945 C 534.96064 292.55565 556.92337 326.26631 565.0957 366.61719 C 578.88651 438.1251 586.03809 451.91737 603.4043 445.27734 C 615.66281 440.68041 618.72696 426.88965 611.57617 409.52344 C 593.69919 366.10793 603.40419 364.06424 640.17969 402.88281 C 672.35825 436.59368 685.12751 461.62071 692.78906 503.50391 C 699.93986 544.36557 695.85342 580.12016 680.01953 614.3418 C 661.12101 656.225 602.38356 706.28004 589.10352 693 C 585.52813 689.42461 589.61254 681.25376 602.89258 666.44141 C 638.64654 627.62284 645.79801 589.8255 625.36719 549.47461 C 612.08714 523.93607 597.27393 513.72039 605.95703 536.70508 C 608.51089 543.85587 611.06641 552.02817 611.06641 554.58203 C 611.06641 563.77591 594.21073 575.01172 580.41992 575.01172 C 561.01062 575.01172 552.83767 559.68911 556.92383 531.08594 C 560.49923 504.52586 554.37112 487.16012 536.49414 470.30469 C 517.08485 452.42771 506.86757 453.44819 517.59375 471.83594 C 531.38456 495.84217 523.21288 517.80577 488.48047 551.00586 C 470.09271 568.88284 456.81267 586.24937 453.74805 597.48633 C 444.04341 631.70796 461.92039 681.25216 488.48047 695.04297 C 497.16357 699.6399 503.80469 705.25865 503.80469 707.8125 C 503.80469 725.17871 443.53386 693.00083 414.41992 660.82227 C 389.90293 633.24065 376.11133 597.99708 376.11133 562.75391 C 376.6221 536.19382 392.96609 495.84343 423.10156 449.36328 C 457.3232 396.24311 468.04961 373.25741 471.625 345.67578 C 474.68963 317.58339 464.98558 293.57821 443.5332 274.67969 C 428.97623 262.42119 433.82833 256.41918 447.61914 256.54688 z M 538.53711 758.89062 C 732.63 758.89062 763.27483 759.91171 773.49023 767.0625 C 786.77028 776.25638 787.79265 792.60082 776.04492 805.88086 C 768.38335 814.56396 754.08136 815.07422 539.04688 815.07422 L 310.22266 815.07422 L 302.56055 803.83789 C 291.83437 788.51476 292.34503 781.36396 304.60352 769.10547 C 314.30817 759.40081 321.45953 758.89064 538.53711 758.89062 z "
       transform="translate(0,3.464567e-6)"
       id="path4386" />
  </g>
  <g
     inkscape:groupmode="layer"
     id="layer4"
     inkscape:label="FCC"
     style="display:inline;opacity:1" />
</svg>
